<svg xmlns="http://www.w3.org/2000/svg" viewBox="0 0 64 64"><title>Artboard-12</title><g id="Calculator"><path d="M5,10a1,1,0,0,0,1,1V9A1,1,0,0,0,5,10Z" style="fill:#232328"/><path d="M8,13v2a1,1,0,0,0,0-2Z" style="fill:#232328"/><path d="M6,1A6,6,0,0,0,0,7V21H29a1,1,0,0,1,1,1V63H43a1,1,0,0,0,1-1V7a6,6,0,0,1,6-6ZM8,17v1a1,1,0,0,1-2,0V17H5a1,1,0,0,1,0-2H6V13A3,3,0,0,1,6,7V6A1,1,0,0,1,8,6V7H9A1,1,0,0,1,9,9H8v2a3,3,0,0,1,0,6ZM40,59H33a1,1,0,0,1,0-2h7a1,1,0,0,1,0,2Zm0-4H33a1,1,0,0,1,0-2h7a1,1,0,0,1,0,2Zm0-4H33a1,1,0,0,1,0-2h7a1,1,0,0,1,0,2Zm0-4H33a1,1,0,0,1,0-2h7a1,1,0,0,1,0,2Zm0-4H33a1,1,0,0,1,0-2h7a1,1,0,0,1,0,2Zm0-4H33a1,1,0,0,1,0-2h7a1,1,0,0,1,0,2Zm0-4H33a1,1,0,0,1,0-2h7a1,1,0,0,1,0,2Zm0-4H33a1,1,0,0,1,0-2h7a1,1,0,0,1,0,2Zm0-4H33a1,1,0,0,1,0-2h7a1,1,0,0,1,0,2Zm0-4H33a1,1,0,0,1,0-2h7a1,1,0,0,1,0,2Zm0-4H14a1,1,0,0,1,0-2H40a1,1,0,0,1,0,2Zm0-4H14a1,1,0,0,1,0-2H40a1,1,0,0,1,0,2Zm0-4H14a1,1,0,0,1,0-2H40a1,1,0,0,1,0,2Zm0-4H14a1,1,0,0,1,0-2H40a1,1,0,0,1,0,2Z" style="fill:#232328"/><path d="M54,34V7.087a4,4,0,0,0-8,0V40H60A6,6,0,0,1,54,34Z" style="fill:#232328"/><rect x="21" y="48" width="2" height="2" style="fill:#232328"/><rect x="13" y="40" width="2" height="2" style="fill:#232328"/><rect x="13" y="56" width="2" height="2" style="fill:#232328"/><rect x="13" y="48" width="2" height="2" style="fill:#232328"/><rect x="21" y="56" width="2" height="2" style="fill:#232328"/><rect x="21" y="40" width="2" height="2" style="fill:#232328"/><rect x="5" y="56" width="2" height="2" style="fill:#232328"/><path d="M0,62a1,1,0,0,0,1,1H28V23H0Zm17-3a1,1,0,0,1-1,1H12a1,1,0,0,1-1-1V55a1,1,0,0,1,1-1h4a1,1,0,0,1,1,1Zm0-8a1,1,0,0,1-1,1H12a1,1,0,0,1-1-1V47a1,1,0,0,1,1-1h4a1,1,0,0,1,1,1Zm0-8a1,1,0,0,1-1,1H12a1,1,0,0,1-1-1V39a1,1,0,0,1,1-1h4a1,1,0,0,1,1,1Zm8,16a1,1,0,0,1-1,1H20a1,1,0,0,1-1-1V55a1,1,0,0,1,1-1h4a1,1,0,0,1,1,1Zm0-8a1,1,0,0,1-1,1H20a1,1,0,0,1-1-1V47a1,1,0,0,1,1-1h4a1,1,0,0,1,1,1Zm0-8a1,1,0,0,1-1,1H20a1,1,0,0,1-1-1V39a1,1,0,0,1,1-1h4a1,1,0,0,1,1,1ZM3,27a1,1,0,0,1,1-1H24a1,1,0,0,1,1,1v8a1,1,0,0,1-1,1H4a1,1,0,0,1-1-1ZM3,39a1,1,0,0,1,1-1H8a1,1,0,0,1,1,1v4a1,1,0,0,1-1,1H4a1,1,0,0,1-1-1Zm0,8a1,1,0,0,1,1-1H8a1,1,0,0,1,1,1v4a1,1,0,0,1-1,1H4a1,1,0,0,1-1-1Zm0,8a1,1,0,0,1,1-1H8a1,1,0,0,1,1,1v4a1,1,0,0,1-1,1H4a1,1,0,0,1-1-1Z" style="fill:#232328"/><path d="M23,28H5v6H23ZM8,32a1,1,0,0,1-2,0V30a1,1,0,0,1,2,0Zm3,0a1,1,0,0,1-2,0V30a1,1,0,0,1,2,0Zm3,0a1,1,0,0,1-2,0V30a1,1,0,0,1,2,0Z" style="fill:#232328"/><rect x="5" y="40" width="2" height="2" style="fill:#232328"/><rect x="5" y="48" width="2" height="2" style="fill:#232328"/><path d="M56,16V34a4,4,0,0,0,8,0V16Z" style="fill:#232328"/></g></svg>